HIERARCHY
ROOT SpineBase
{
  OFFSET 0.000000 0.000000 0.000000
  CHANNELS 6 Xposition Yposition Zposition Zrotation Xrotation Yrotation
  JOINT SpineMid
  {
    OFFSET 0.000000 32.086949 0.000000
    CHANNELS 3 Zrotation Xrotation Yrotation
    JOINT SpineShoulder
    {
      OFFSET 0.012844 23.775219 -0.763134
      CHANNELS 3 Zrotation Xrotation Yrotation
      JOINT Neck
      {
        OFFSET 0.062956 7.839293 -0.600356
        CHANNELS 3 Zrotation Xrotation Yrotation
        JOINT Head
        {
          OFFSET 3.212266 14.147600 2.682781
          CHANNELS 3 Zrotation Xrotation Yrotation
          End Site
          {
            OFFSET 0 0 0
          }
        }
      }
      JOINT ShoulderLeft
      {
        OFFSET -13.086068 -1.958835 -9.435387
        CHANNELS 3 Zrotation Xrotation Yrotation
        JOINT ElbowLeft
        {
          OFFSET -5.474103 -25.556243 -4.055597
          CHANNELS 3 Zrotation Xrotation Yrotation
          JOINT WristLeft
          {
            OFFSET 2.734652 -22.110245 -3.685269
            CHANNELS 3 Zrotation Xrotation Yrotation
            JOINT HandLeft
            {
              OFFSET 3.024833 -7.704171 0.270986
              CHANNELS 3 Zrotation Xrotation Yrotation
              JOINT HandTipLeft
              {
                OFFSET 1.202626 -5.238849 -0.641188
                CHANNELS 3 Zrotation Xrotation Yrotation
                End Site
                {
                  OFFSET 0 0 0
                }
              }
              JOINT ThumbLeft
              {
                OFFSET -3.927541 0.722000 0.237608
                CHANNELS 3 Zrotation Xrotation Yrotation
                End Site
                {
                  OFFSET 0 0 0
                }
              }
            }
          }
        }
      }
      JOINT ShoulderRight
      {
        OFFSET 15.234200 -4.823471 11.467375
        CHANNELS 3 Zrotation Xrotation Yrotation
        JOINT ElbowRight
        {
          OFFSET 2.102204 -26.707402 2.548964
          CHANNELS 3 Zrotation Xrotation Yrotation
          JOINT WristRight
          {
            OFFSET 2.008218 21.979868 -3.268653
            CHANNELS 3 Zrotation Xrotation Yrotation
            JOINT HandRight
            {
              OFFSET -3.143380 5.298563 -3.117336
              CHANNELS 3 Zrotation Xrotation Yrotation
              JOINT HandTipRight
              {
                OFFSET -1.161230 6.687691 2.052351
                CHANNELS 3 Zrotation Xrotation Yrotation
                End Site
                {
                  OFFSET 0 0 0
                }
              }
              JOINT ThumbRight
              {
                OFFSET -1.737448 -0.278127 -5.190956
                CHANNELS 3 Zrotation Xrotation Yrotation
                End Site
                {
                  OFFSET 0 0 0
                }
              }
            }
          }
        }
      }
    }
  }
  JOINT HipLeft
  {
    OFFSET -5.405167 1.047471 -8.087085
    CHANNELS 3 Zrotation Xrotation Yrotation
    JOINT KneeLeft
    {
      OFFSET -8.626796 -36.233930 1.933781
      CHANNELS 3 Zrotation Xrotation Yrotation
      JOINT AnkleLeft
      {
        OFFSET -5.812242 -34.868859 7.882110
        CHANNELS 3 Zrotation Xrotation Yrotation
        JOINT FootLeft
        {
          OFFSET 1.619397 -8.290749 -8.691952
          CHANNELS 3 Zrotation Xrotation Yrotation
          End Site
          {
            OFFSET 0 0 0
          }
        }
      }
    }
  }
  JOINT HipRight
  {
    OFFSET 6.919219 -0.400761 0.529227
    CHANNELS 3 Zrotation Xrotation Yrotation
    JOINT KneeRight
    {
      OFFSET -2.919366 -36.040998 3.668546
      CHANNELS 3 Zrotation Xrotation Yrotation
      JOINT AnkleRight
      {
        OFFSET -3.975098 -35.016081 8.664804
        CHANNELS 3 Zrotation Xrotation Yrotation
        JOINT FootRight
        {
          OFFSET 4.353911 -7.568244 -7.754733
          CHANNELS 3 Zrotation Xrotation Yrotation
          End Site
          {
            OFFSET 0 0 0
          }
        }
      }
    }
  }
}
MOTION
Frames: 9
Frame Time: 0.033333
-86.652245 79.545873 428.294295 -0.222320 0.025359 -35.837912 0.195077 0.109609 35.837774 -0.483158 0.669619 -0.039572 -2.266244 1.484137 0.096150 0.000000 0.000000 0.000000 -4.682096 1.134614 0.493658 6.377403 -4.012893 -0.756184 -1.072003 0.781116 -0.039135 1.243154 3.689497 0.822280 0.000000 0.000000 0.000000 0.000000 0.000000 0.000000 0.002485 -2.544743 -0.161680 0.179385 3.679929 -0.008479 3.428361 -3.476774 1.171077 -2.781288 -9.841662 -2.971371 0.000000 0.000000 0.000000 0.000000 0.000000 0.000000 0.195077 0.109609 35.837774 0.729209 0.524729 0.074189 -1.478905 1.103732 1.013431 0.000000 0.000000 0.000000 0.195077 0.109609 35.837774 0.344413 1.457896 -0.084965 0.695710 0.629084 0.214002 0.000000 0.000000 0.000000
-86.945764 79.203627 428.459112 -0.382953 -0.069986 -36.584635 0.265793 0.284439 36.583742 -0.000000 0.000000 0.000000 -4.211082 2.698084 0.281778 0.000000 0.000000 0.000000 -4.049705 1.568422 0.358910 4.863277 -3.287887 -0.560573 -2.247265 0.632870 -0.074050 0.356674 -1.002512 0.108430 0.000000 0.000000 0.000000 0.000000 0.000000 0.000000 -0.037703 -2.415378 -0.194156 -0.133757 3.994774 0.033753 1.734471 -1.959524 0.907067 0.668798 -8.389224 -2.812305 0.000000 0.000000 0.000000 0.000000 0.000000 0.000000 0.265793 0.284439 36.583742 0.744938 0.539073 0.075195 -1.432434 0.705891 0.873735 0.000000 0.000000 0.000000 0.265793 0.284439 36.583742 0.411192 1.515805 -0.076056 0.660388 0.761017 0.277427 0.000000 0.000000 0.000000
-87.212763 78.836038 428.630140 -0.468625 -0.180012 -37.291041 0.263768 0.427130 37.289322 -0.000000 0.000000 0.000000 -5.054889 3.524911 0.309310 0.000000 0.000000 0.000000 -3.164496 1.028193 0.308207 3.732440 -1.759631 -0.421325 -1.375285 -1.655768 -0.777529 -1.985261 -2.483760 0.172750 0.000000 0.000000 0.000000 0.000000 0.000000 0.000000 0.521466 -2.995734 -0.171959 -0.934983 4.000103 0.072512 0.943603 1.015089 1.686988 4.026343 -12.688659 -4.347594 0.000000 0.000000 0.000000 0.000000 0.000000 0.000000 0.263768 0.427130 37.289322 0.762981 0.556936 0.076099 -1.422200 0.616672 0.829053 0.000000 0.000000 0.000000 0.618175 1.799357 37.324768 -0.810354 0.732645 -0.158786 1.461879 1.003678 -0.185326 0.000000 0.000000 0.000000
-87.413052 78.464200 428.799163 -0.478624 -0.277179 -37.849805 0.207867 0.512542 37.847717 0.000688 0.813980 -0.006493 -5.460908 3.737493 0.145911 0.000000 0.000000 0.000000 -2.410675 0.065860 0.183716 2.407289 -0.887503 -0.174322 0.323954 -3.669087 -1.416049 -1.698224 -1.688398 0.405742 0.000000 0.000000 0.000000 0.000000 0.000000 0.000000 0.960714 -4.611723 -0.154765 -0.973594 3.794477 0.239026 -0.217696 2.926621 1.640476 6.814282 -13.420104 -4.651254 0.000000 0.000000 0.000000 0.000000 0.000000 0.000000 0.207867 0.512542 37.847717 0.737342 0.552887 0.071114 -1.401651 0.596665 0.835026 0.000000 0.000000 0.000000 0.551350 2.452421 37.880646 -1.207702 0.137373 -0.159177 0.833535 0.765179 0.265196 0.000000 0.000000 0.000000
-87.481379 78.142910 428.966751 -0.453537 -0.337969 -38.172471 0.147685 0.545991 38.170430 -0.000000 0.000000 0.000000 -5.217146 5.481553 -0.005521 0.000000 0.000000 0.000000 -1.687313 0.708045 0.126026 1.685882 -0.711447 -0.105131 0.433326 -4.235054 -1.627629 -2.449965 -1.708513 0.598709 0.000000 0.000000 0.000000 0.000000 0.000000 0.000000 1.195973 -4.607981 -0.199701 -1.215931 4.602765 0.296690 -0.329492 3.391194 1.863797 9.350955 -14.513641 -5.245177 0.000000 0.000000 0.000000 0.000000 0.000000 0.000000 0.147685 0.545991 38.170430 0.695970 0.566207 0.059633 -1.451322 0.769808 0.977001 0.000000 0.000000 0.000000 0.267699 2.849143 38.180722 -1.219049 -0.490957 -0.098697 0.034527 0.053085 0.468001 0.000000 0.000000 0.000000
-87.425917 77.915047 429.112948 -0.416091 -0.308746 -38.218099 -0.772321 0.381980 38.197872 0.460393 0.359657 -0.003223 -4.106202 4.652950 -0.218609 0.000000 0.000000 0.000000 -0.802471 -0.244628 0.077193 1.128054 -0.585387 -0.048007 0.279829 -5.256097 -2.036968 -2.557670 -0.844749 1.042438 0.000000 0.000000 0.000000 0.000000 0.000000 0.000000 1.561737 -5.898538 -0.174269 -2.086080 5.129519 0.280851 0.896968 2.318200 1.605954 8.889249 -15.117525 -5.207242 0.000000 0.000000 0.000000 0.000000 0.000000 0.000000 0.135907 0.499984 38.216385 0.615488 0.590684 0.037576 -1.437749 1.097369 1.135724 0.000000 0.000000 0.000000 -0.124175 2.897284 38.188585 -0.960788 -1.068449 -0.011008 -0.317062 -0.976509 0.029626 0.000000 0.000000 0.000000
-87.237222 77.806428 429.221748 -0.336608 -0.274640 -37.844893 -0.851727 0.138083 37.818508 0.344758 0.234863 -0.017024 -2.920385 5.633111 -0.535569 0.000000 0.000000 0.000000 0.580096 -0.591160 0.052148 0.495046 0.975711 0.033887 -1.371561 -7.325318 -2.634586 0.261983 1.020686 1.350179 0.000000 0.000000 0.000000 0.000000 0.000000 0.000000 -1.412995 -10.905133 -1.144445 3.327922 15.417789 0.258454 6.269645 4.911064 10.799328 -0.465327 -16.073489 -13.571835 0.000000 0.000000 0.000000 0.000000 0.000000 0.000000 -0.671510 0.725825 37.659880 1.010581 -0.059696 0.223378 -1.541004 1.353095 1.344034 0.000000 0.000000 0.000000 -0.553844 2.487589 37.772282 -0.376478 -1.216670 0.085584 0.579997 -0.215155 -0.621850 0.000000 0.000000 0.000000
-86.892132 77.852296 429.286525 -0.208306 -0.124249 -37.347546 -1.169478 0.077363 37.315091 0.165287 0.317276 -0.039797 -1.102099 5.513850 -0.907669 0.000000 0.000000 0.000000 0.926953 -0.962620 0.086458 0.802129 1.111451 -0.003998 -2.672805 -8.447481 -3.129960 2.491130 4.204573 1.909029 0.000000 0.000000 0.000000 0.000000 0.000000 0.000000 2.217317 -5.702802 -0.088719 -5.948804 -1.038204 0.283891 8.024590 4.484040 0.827631 4.642049 -7.718090 -4.794173 0.000000 0.000000 0.000000 0.000000 0.000000 0.000000 -1.136776 0.331188 37.107540 1.487125 -0.136712 0.272814 -1.528574 1.481237 1.384765 0.000000 0.000000 0.000000 -1.010634 1.557511 37.217381 0.543575 -0.986006 0.192664 0.297411 -0.717619 -0.802189 0.000000 0.000000 0.000000
-86.534183 78.114461 429.250670 -0.250946 0.054224 -36.908093 -1.230271 -0.134363 36.865047 0.011434 0.732011 -0.060297 0.671626 5.046876 -1.187982 0.000000 0.000000 0.000000 1.306290 -1.415020 0.127431 1.514209 1.172020 -0.122514 -3.597905 -8.946615 -3.236379 5.047061 6.564187 1.866444 0.000000 0.000000 0.000000 0.000000 0.000000 0.000000 4.727469 -0.242504 0.594826 -9.587925 -10.828326 -1.096283 3.009796 2.003988 -6.415794 4.539935 -6.497630 3.083655 0.000000 0.000000 0.000000 0.000000 0.000000 0.000000 -1.202901 -0.105238 36.675584 1.854509 0.032486 0.254673 -1.416113 1.721308 1.319442 0.000000 0.000000 0.000000 -1.262572 0.445928 36.719406 1.667976 -0.153601 0.266228 0.190374 -1.085989 -0.970710 0.000000 0.000000 0.000000
